<?xml version="1.0" standalone="no"?>
<!DOCTYPE svg PUBLIC "-//W3C//DTD SVG 20010904//EN"
 "http://www.w3.org/TR/2001/REC-SVG-20010904/DTD/svg10.dtd">
<svg version="1.0" xmlns="http://www.w3.org/2000/svg"
 width="612.000000pt" height="612.000000pt" viewBox="0 0 612.000000 612.000000"
 preserveAspectRatio="xMidYMid meet">

<g transform="translate(0.000000,612.000000) scale(0.100000,-0.100000)"
fill="#000000" stroke="none">
<path d="M1393 4954 c-61 -22 -136 -93 -164 -156 l-24 -53 0 -1190 0 -1190 28
-57 c30 -61 74 -105 140 -140 40 -22 54 -23 315 -26 l272 -3 0 -57 c0 -105 51
-152 164 -152 l65 0 6 -37 c16 -91 40 -173 70 -239 245 -537 938 -674 1362
-270 111 105 186 224 231 366 11 36 24 76 28 90 4 14 10 457 13 985 l6 960 27
55 c59 120 170 191 300 192 136 0 242 -64 307 -187 l26 -50 3 -505 3 -505 -45
-18 c-55 -23 -115 -79 -141 -132 -17 -35 -21 -68 -25 -260 -3 -121 -2 -232 3
-248 6 -18 18 -29 35 -33 15 -3 33 -7 40 -10 8 -2 12 -26 12 -72 0 -101 2
-102 187 -102 180 0 180 0 185 105 l3 69 33 7 c19 4 39 12 45 18 9 9 12 80 12
239 0 209 -2 231 -21 272 -28 61 -91 123 -147 146 l-47 19 -1 480 c0 420 -2
488 -17 546 -54 204 -241 349 -452 349 -216 -1 -414 -172 -449 -390 -7 -42
-11 -385 -11 -965 0 -763 -3 -910 -15 -963 -64 -270 -265 -476 -535 -548 -88
-23 -263 -23 -350 -1 -258 68 -466 274 -530 523 -30 116 -32 111 56 116 73 3
77 5 110 41 31 34 34 42 34 102 l0 65 253 0 c197 0 265 3 304 15 64 19 139 85
173 151 l25 49 3 1179 c3 1305 6 1239 -61 1327 -19 24 -59 58 -88 74 l-54 30
-830 2 c-718 1 -836 0 -872 -13z m1687 -126 c25 -13 55 -38 68 -57 l22 -34 -2
-1186 -3 -1186 -22 -31 c-48 -67 -7 -64 -891 -64 -465 0 -809 3 -823 9 -27 10
-70 54 -88 88 -8 16 -11 346 -11 1188 0 1056 2 1170 16 1201 18 37 59 71 102
84 15 5 378 9 807 9 l781 1 44 -22z m1620 -2180 c80 -42 85 -54 88 -259 l3
-179 -155 0 -156 0 0 165 c0 212 13 247 107 281 52 18 62 17 113 -8z m-2280
-553 l0 -45 -167 2 -168 3 -3 43 -3 42 170 0 171 0 0 -45z m2278 -37 l3 -28
-65 0 c-62 0 -66 1 -66 23 0 34 8 38 69 35 53 -3 56 -5 59 -30z"/>
<path d="M2403 4427 c-154 -226 -390 -573 -396 -583 -4 -7 34 -38 98 -80 58
-37 105 -70 105 -74 0 -3 -18 -57 -41 -120 -36 -101 -127 -360 -173 -490 l-16
-45 23 29 c12 17 71 102 131 190 59 89 173 256 252 373 l144 211 -105 63 c-58
35 -105 68 -105 74 0 5 36 131 80 279 45 148 79 270 77 272 -2 2 -35 -42 -74
-99z"/>
<path d="M1732 2553 c-93 -45 -72 -183 29 -199 19 -3 46 -1 61 5 30 11 68 64
68 94 0 36 -32 85 -65 101 -41 20 -52 20 -93 -1z"/>
<path d="M2212 2560 c-85 -35 -90 -157 -9 -196 90 -43 184 44 148 138 -18 48
-91 78 -139 58z"/>
<path d="M2684 2556 c-41 -18 -64 -52 -64 -94 0 -68 44 -112 111 -112 22 0 41
10 65 34 58 58 42 141 -32 172 -40 17 -41 17 -80 0z"/>
</g>
</svg>
